<?xml version="1.0" standalone="no"?>
<!DOCTYPE svg PUBLIC "-//W3C//DTD SVG 20010904//EN"
 "http://www.w3.org/TR/2001/REC-SVG-20010904/DTD/svg10.dtd">
<svg version="1.0" xmlns="http://www.w3.org/2000/svg"
 width="16.000000pt" height="16.000000pt" viewBox="0 0 16.000000 16.000000"
 preserveAspectRatio="xMidYMid meet">
<metadata>
Created by potrace 1.11, written by Peter Selinger 2001-2013
</metadata>
<g transform="translate(0.000000,16.000000) scale(0.001600,-0.001600)"
fill="#000000" stroke="none">
<path d="M4938 9015 c-1 -1 -66 -6 -143 -9 -174 -9 -331 -20 -430 -31 -16 -2
-61 -6 -100 -10 -38 -4 -78 -9 -87 -10 -9 -2 -45 -6 -80 -10 -35 -3 -88 -10
-118 -15 -30 -5 -75 -12 -100 -15 -56 -7 -312 -49 -370 -60 -14 -3 -38 -8 -55
-11 -16 -3 -70 -14 -120 -24 -49 -11 -103 -22 -120 -25 -16 -3 -111 -25 -210
-50 -99 -25 -189 -48 -199 -50 -35 -8 -271 -76 -286 -82 -8 -3 -19 -7 -25 -8
-46 -11 -426 -145 -490 -174 -11 -5 -45 -19 -75 -31 -430 -173 -920 -480
-1295 -809 -72 -64 -280 -275 -320 -326 -22 -27 -48 -59 -58 -69 -33 -37 -124
-181 -160 -252 -67 -132 -88 -212 -92 -339 -6 -222 101 -383 330 -498 148 -74
300 -113 520 -134 171 -17 542 0 610 28 19 7 19 8 1 8 -34 2 -160 42 -226 74
-232 110 -375 303 -425 572 -11 60 -5 225 11 302 33 165 123 369 210 483 85
110 204 236 286 302 22 18 45 38 52 43 34 31 271 195 281 195 1 0 33 18 70 41
94 57 367 187 510 244 120 47 417 148 530 180 73 21 164 45 185 50 8 2 53 13
100 25 47 12 94 23 105 25 11 2 54 10 95 20 41 9 86 19 100 21 14 2 36 7 50 9
57 12 79 16 160 30 47 8 108 17 135 20 28 4 57 8 65 11 8 2 38 6 65 9 28 3 61
8 75 10 14 3 52 7 85 10 33 4 71 8 85 10 47 7 140 15 355 30 315 22 757 22
1070 0 171 -12 265 -21 325 -29 19 -3 55 -8 80 -11 25 -2 56 -7 70 -9 14 -3
43 -7 65 -10 22 -3 51 -8 65 -11 14 -3 41 -8 60 -10 19 -2 35 -4 35 -5 0 -1
11 -3 25 -6 172 -31 450 -103 590 -154 163 -59 393 -161 404 -179 2 -3 -19
-31 -47 -62 -29 -31 -68 -76 -87 -99 -45 -54 -61 -73 -85 -102 -159 -189 -503
-700 -670 -995 -198 -350 -261 -470 -506 -963 -111 -223 -336 -676 -501 -1007
-165 -332 -304 -603 -309 -603 -5 0 -9 -7 -9 -15 0 -8 -13 -37 -30 -63 -16
-27 -30 -52 -30 -54 0 -9 -220 -389 -251 -435 -16 -23 -29 -45 -29 -48 0 -9
-234 -365 -240 -365 -3 0 -26 19 -51 43 -26 23 -80 71 -120 107 -40 36 -94 88
-120 115 -98 103 -129 139 -129 146 0 4 18 35 40 68 22 33 40 64 40 70 0 5 3
11 8 13 6 2 91 140 138 223 6 11 106 184 223 384 116 200 211 365 211 368 0 2
16 29 35 59 19 30 35 56 35 58 0 3 21 40 46 83 26 43 56 94 67 113 11 19 35
62 54 95 57 101 70 121 236 398 89 147 169 280 177 295 8 15 18 29 21 32 3 3
23 34 44 70 22 36 43 70 47 75 5 6 64 94 132 197 156 234 347 502 464 647 45
55 236 285 247 297 5 6 39 44 75 85 36 41 147 156 248 257 101 100 173 178
159 173 -27 -10 -265 -131 -312 -159 -66 -38 -204 -129 -270 -177 -67 -50
-106 -81 -204 -163 -79 -67 -258 -249 -390 -397 -44 -50 -176 -221 -257 -335
-143 -200 -277 -411 -429 -676 -27 -48 -64 -113 -82 -143 -18 -31 -38 -67 -46
-81 -42 -76 -199 -364 -227 -415 -113 -206 -193 -351 -200 -360 -4 -5 -21 -35
-37 -65 -62 -113 -190 -329 -261 -440 -92 -143 -209 -317 -222 -330 -3 -3 -16
-22 -30 -42 -14 -21 -29 -38 -34 -38 -17 0 -241 234 -322 336 -142 179 -234
329 -291 481 -124 323 -93 589 97 844 l25 34 -40 -24 c-22 -13 -101 -57 -175
-99 -74 -41 -146 -82 -160 -90 -215 -134 -325 -236 -382 -354 -56 -116 -71
-185 -71 -328 0 -69 5 -152 12 -185 29 -140 117 -348 209 -495 48 -76 106
-164 113 -170 3 -3 21 -27 39 -55 29 -42 148 -199 195 -256 7 -10 36 -46 63
-80 28 -35 66 -78 84 -95 18 -16 63 -64 100 -105 36 -41 69 -77 73 -80 5 -6
-9 -35 -56 -114 -10 -16 -26 -46 -37 -65 -11 -19 -77 -134 -147 -255 -70 -121
-137 -236 -147 -255 -11 -19 -51 -88 -90 -152 l-69 -118 -78 40 c-288 145
-503 436 -595 808 -14 55 -28 126 -33 159 -10 74 -10 382 0 448 14 90 16 101
46 214 l29 112 -47 -37 c-150 -119 -264 -292 -296 -449 -5 -22 -10 -47 -12
-55 -11 -38 -9 -244 2 -320 12 -81 38 -192 55 -235 47 -124 102 -246 143 -320
58 -106 170 -275 209 -316 16 -16 28 -31 28 -35 0 -17 217 -230 291 -286 30
-22 58 -43 62 -47 9 -9 -31 -80 -185 -332 -133 -218 -172 -274 -241 -342 -83
-82 -148 -111 -252 -112 -68 0 -89 4 -140 29 -144 70 -208 216 -200 456 3 104
6 133 26 240 18 99 20 105 24 118 7 21 -37 -17 -70 -60 -16 -21 -35 -44 -40
-51 -17 -20 -75 -143 -75 -159 0 -8 -3 -18 -7 -22 -4 -3 -8 -12 -10 -19 -1 -7
-7 -30 -12 -52 -27 -111 -30 -275 -6 -401 41 -218 149 -383 284 -432 151 -54
328 0 476 145 49 49 116 126 144 167 8 12 17 23 20 26 8 7 171 254 181 275 9
18 86 136 202 309 l114 170 84 2 c189 6 260 14 405 49 209 51 304 92 553 240
26 15 142 98 290 208 80 59 139 96 148 93 8 -3 58 -34 112 -69 212 -138 468
-274 682 -362 63 -26 124 -51 135 -55 138 -60 529 -167 710 -195 214 -32 305
-43 425 -51 73 -4 402 -4 464 1 89 6 181 16 196 20 8 3 35 7 60 9 88 9 286 51
405 87 39 11 75 22 80 23 6 2 17 6 25 9 8 4 38 14 65 23 306 100 715 324 974
532 153 122 381 339 496 472 123 142 302 394 400 565 128 223 270 551 326 755
7 25 14 50 15 55 2 6 10 37 20 70 15 58 19 71 29 116 2 11 7 29 10 40 4 11 8
32 10 47 3 15 6 37 9 48 4 21 33 208 41 269 25 191 25 649 0 825 -3 19 -7 53
-10 75 -4 41 -30 195 -39 230 -2 11 -12 52 -20 90 -20 84 -18 79 -51 185 -15
47 -31 101 -37 120 -5 19 -13 40 -17 45 -4 6 -20 44 -36 85 -25 63 -90 198
-132 275 -189 340 -452 646 -803 935 -109 89 -103 85 -224 174 -261 193 -369
257 -703 417 -51 24 -93 49 -93 55 0 6 56 89 125 185 112 156 123 175 108 187
-34 25 -84 -8 -297 -193 -45 -38 -92 -80 -106 -92 -31 -29 -40 -29 -125 2
-296 108 -835 238 -1080 259 -27 3 -63 7 -80 10 -54 8 -198 19 -415 31 -69 4
-145 9 -170 12 -54 5 -827 13 -832 8z m2756 -869 c83 -41 171 -88 196 -104 25
-16 77 -50 116 -75 62 -40 246 -179 280 -211 6 -6 44 -40 84 -76 71 -64 239
-242 292 -310 14 -19 35 -45 45 -57 51 -61 188 -266 215 -323 7 -14 15 -27 18
-30 3 -3 14 -23 25 -45 11 -22 30 -56 42 -76 12 -20 20 -39 17 -41 -2 -3 2
-11 11 -18 8 -7 15 -17 15 -23 0 -5 11 -33 24 -61 39 -83 96 -229 96 -246 0
-9 4 -20 8 -25 8 -9 19 -41 62 -180 12 -41 51 -194 56 -225 3 -14 11 -59 19
-100 48 -250 60 -390 60 -725 0 -265 -10 -455 -31 -575 -2 -14 -7 -41 -10 -60
-73 -456 -280 -960 -549 -1340 -37 -52 -71 -97 -74 -100 -4 -3 -14 -16 -23
-29 -19 -27 -138 -161 -184 -206 -266 -259 -526 -406 -879 -494 -44 -11 -96
-23 -115 -26 -19 -3 -46 -7 -60 -10 -25 -5 -76 -12 -140 -20 -19 -2 -82 -7
-139 -10 -58 -3 -108 -8 -113 -11 -4 -3 -8 -2 -8 3 0 4 -53 8 -118 9 -144 0
-278 11 -392 30 -19 3 -48 7 -65 9 -53 6 -349 74 -436 101 -496 152 -924 380
-1214 646 l-69 64 29 50 c16 27 80 123 143 214 353 508 499 742 735 1183 103
191 208 392 233 445 26 53 113 232 194 397 166 336 164 332 337 725 182 414
231 520 340 735 127 251 230 442 354 660 142 248 143 249 152 253 4 2 7 9 7
15 0 10 42 79 67 112 5 6 28 42 53 80 25 39 49 75 55 81 26 30 44 54 55 73 6
12 16 21 21 21 6 0 79 -33 163 -74z m-4123 -4947 c23 -20 98 -82 127 -104 7
-5 18 -14 25 -20 7 -5 30 -23 52 -39 22 -17 42 -33 45 -36 3 -3 28 -21 55 -40
28 -19 71 -50 98 -68 l47 -34 -32 -41 c-91 -116 -227 -221 -383 -296 -73 -36
-158 -68 -195 -76 -8 -2 -40 -10 -71 -19 -113 -33 -239 -47 -327 -37 -15 1
-17 -2 226 366 272 411 292 443 292 454 0 17 15 13 41 -10z"/>
</g>
</svg>
